<svg width="39" height="26" viewBox="0 0 39 26" fill="none" xmlns="http://www.w3.org/2000/svg">
<path d="M2.65909 25.9309H8.86364V12.576L0 6.68408V23.5741C0 24.8782 1.19216 25.9309 2.65909 25.9309Z" fill="#4285F4"/>
<path d="M30.1367 25.9309H36.3413C37.8126 25.9309 39.0004 24.8742 39.0004 23.5741V6.68408L30.1367 12.576" fill="#34A853"/>
<path d="M30.1367 2.36343V12.576L39.0004 6.68414V3.54181C39.0004 0.627296 35.2466 -1.03421 32.6185 0.71371" fill="#FBBC04"/>
<path d="M8.86328 12.5763V2.36377L19.4996 9.43401L30.136 2.36377V12.5763L19.4996 19.6466" fill="#EA4335"/>
<path d="M0 3.54181V6.68414L8.86364 12.576V2.36343L6.38182 0.71371C3.74932 -1.03421 0 0.627296 0 3.54181Z" fill="#C5221F"/>
</svg>
